HIERARCHY
ROOT Hips
{
  OFFSET -181.334 92.7799 -217.247
  CHANNELS 6 Xposition Yposition Zposition Zrotation Xrotation Yrotation
  JOINT ToSpine
  {
    OFFSET -2.69724 7.43032 -0.144315
    CHANNELS 3 Zrotation Xrotation Yrotation
    JOINT Spine
    {
      OFFSET -0.0310711 10.7595 1.96963
      CHANNELS 3 Zrotation Xrotation Yrotation
      JOINT Spine1
      {
        OFFSET 13.1342 3.43533 0.764692
        CHANNELS 3 Zrotation Xrotation Yrotation
        JOINT Neck
        {
          OFFSET 29.8703 7.82586 -0.130764
          CHANNELS 3 Zrotation Xrotation Yrotation
          JOINT Head
          {
            OFFSET 9.52751 0.295786 -0.907742
            CHANNELS 3 Zrotation Xrotation Yrotation
            End Site
            {
              OFFSET 16.4037 0.713936 2.7358
            }
          }
        }
        JOINT LeftShoulder
        {
          OFFSET 27.5574 4.95586 2.47156
          CHANNELS 3 Zrotation Xrotation Yrotation
          JOINT LeftArm
          {
            OFFSET 1.20734 -0.998971 20.1238
            CHANNELS 3 Zrotation Xrotation Yrotation
            JOINT LeftForeArm
            {
              OFFSET 26.8049 -0.0536703 -0.155908
              CHANNELS 3 Zrotation Xrotation Yrotation
              JOINT LeftHand
              {
                OFFSET 26.6817 0 0.320147
                CHANNELS 3 Zrotation Xrotation Yrotation
                End Site
                {
                  OFFSET 18.6119 0 0.382219
                }
              }
            }
          }
        }
        JOINT RightShoulder
        {
          OFFSET 27.5927 4.71444 -2.65209
          CHANNELS 3 Zrotation Xrotation Yrotation
          JOINT RightArm
          {
            OFFSET 2.83739 -1.17114 -18.7564
            CHANNELS 3 Zrotation Xrotation Yrotation
            JOINT RightForeArm
            {
              OFFSET 28.839 -0.0548439 1.22491
              CHANNELS 3 Zrotation Xrotation Yrotation
              JOINT RightHand
              {
                OFFSET 26.5114 0 -0.101894
                CHANNELS 3 Zrotation Xrotation Yrotation
                End Site
                {
                  OFFSET 18.2168 0 0
                }
              }
            }
          }
        }
      }
    }
  }
  JOINT LeftUpLeg
  {
    OFFSET -4.76168 -1.9167 -10.2353
    CHANNELS 3 Zrotation Xrotation Yrotation
    JOINT LeftLeg
    {
      OFFSET 2.55951 -42.0585 -8.02213
      CHANNELS 3 Zrotation Xrotation Yrotation
      JOINT LeftFoot
      {
        OFFSET 3.16357 -42.5282 -3.95426
        CHANNELS 3 Zrotation Xrotation Yrotation
        JOINT LeftToeBase
        {
          OFFSET 0.346054 -6.02161 12.8035
          CHANNELS 3 Zrotation Xrotation Yrotation
          End Site
          {
            OFFSET 0.134235 -1.35082 5.13018
          }
        }
      }
    }
  }
  JOINT RightUpLeg
  {
    OFFSET -4.94151 -1.41743 10.6446
    CHANNELS 3 Zrotation Xrotation Yrotation
    JOINT RightLeg
    {
      OFFSET -2.56294 -42.0364 -7.94377
      CHANNELS 3 Zrotation Xrotation Yrotation
      JOINT RightFoot
      {
        OFFSET -3.0952 -42.555 -4.02241
        CHANNELS 3 Zrotation Xrotation Yrotation
        JOINT RightToeBase
        {
          OFFSET -0.0828122 -6.13587 12.8035
          CHANNELS 3 Zrotation Xrotation Yrotation
          End Site
          {
            OFFSET -0.131328 -1.35082 5.13018
          }
        }
      }
    }
  }
}
MOTION
Frames:	13
Frame Time:	0.0333333
-42.4911 88.5084 -59.6946 39.8287 -46.8234 -63.5525 -70.1915 0 88.8779 102.07 70.583 -18.2819 -3.34457 21.1769 2.44521 -161.833 37.0307 179.499 -150.371 76.5034 -176.518 0.735252 -11.7822 -29.8849 -75.0026 51.869 -66.1561 21.5776 4.87618 -77.248 0.420957 0.000574826 0.35866 -1.97701 6.18742 46.3637 -66.9432 -35.3474 65.4117 23.2266 -12.6646 62.842 0.58676 0.000331098 0.0646654 -62.6449 -2.13447 90.9377 -4.76795 54.5569 -7.72503 -6.40437 5.8478 1.51609 2.13773 -6.45496 6.38818 -6.85631 -6.13061 75.6897 1.8907 56.4253 -9.71543 -8.69446 -14.3293 1.30551 3.26421 -4.05884 -21.9105 
-40.5929 87.7589 -50.6429 35.2965 -49.0663 -67.6205 -70.1915 0 88.8779 110.523 71.1047 -24.7885 -3.69042 22.1018 3.3983 -163.137 36.7195 -179.07 -150.602 76.3458 -175.184 0.787835 -11.4889 -30.2393 -71.2867 54.2389 -67.9597 17.7752 7.55545 -67.1471 0.420957 0.000574826 0.35866 -1.91543 5.67758 48.129 -68.9125 -27.8225 71.5885 22.7036 -12.018 63.4455 0.58676 0.000331098 0.0646654 -56.5721 -1.26419 91.4016 -10.8926 70.2767 -3.16156 -7.96231 3.28661 1.42489 3.44838 -9.18066 7.9543 -13.2835 -2.93072 74.1289 0.286966 58.2165 -17.7184 -5.79338 -25.5389 1.62166 -1.06136 4.84731 2.29555 
-39.3529 87.1462 -41.8471 31.2157 -50.9167 -71.0154 -70.1915 0 88.8779 120.899 70.4373 -33.7241 -3.95654 22.6367 3.70745 -166.676 35.9865 -176.988 -150.132 75.9123 -174.988 0.708231 -11.8185 -31.2064 -69.3115 56.3607 -67.5883 15.6155 9.65536 -58.5367 0.420957 0.000574826 0.35866 -2.04597 5.98683 48.488 -72.5181 -22.4642 80.3238 24.9065 -11.9225 65.9023 0.58676 0.000331098 0.0646654 -46.4639 0.0597557 90.5324 -55.6779 84.5123 42.9196 -6.14869 3.84533 1.20911 3.65727 -10.0287 10.7011 -20.42 1.783 76.1478 1.97721 58.1423 -10.6419 -8.87546 -31.5643 1.31762 4.28918 3.81541 -24.4607 
-38.3783 86.7281 -33.4177 24.7286 -51.2479 -77.9579 -70.1915 0 88.8779 127.788 70.9821 -40.9529 -5.75196 24.3384 4.39815 -168.819 35.5358 -176.078 -147.917 75.4963 -177.533 0.697458 -11.8996 -30.8321 -63.3856 58.8955 -69.1563 15.1917 11.727 -52.7115 0.420957 0.000574826 0.35866 -2.13944 7.0757 44.5748 -76.2044 -24.2095 88.8407 29.1868 -11.0438 70.9313 0.58676 0.000331098 0.0646654 -32.1564 1.18629 91.091 -150.288 79.7028 140.67 -3.23229 3.86598 0.735455 3.28566 -9.41934 10.7784 -26.942 3.52947 76.4882 1.52619 55.5569 -10.5997 -7.93733 -36.26 1.51477 3.05811 3.60249 -18.1684 
-37.5321 87.2546 -24.1823 18.9459 -50.8436 -84.7593 -70.1915 0 88.8779 132.816 72.5412 -46.7488 -6.99674 26.9655 4.32272 -170.152 36.1083 -176.436 -146.09 75.9405 179.021 0.756481 -11.6768 -29.8275 -57.7635 60.2524 -68.1134 17.8108 12.6985 -55.1125 0.420957 0.000574826 0.35866 -1.88419 7.18721 40.622 -78.9785 -28.7202 94.6307 31.672 -7.41915 78.0091 0.58676 0.000331098 0.0646654 -18.2054 1.58415 91.9773 -157.341 76.6824 150.3 -0.701245 3.61978 0.303573 3.25809 -9.25269 10.1159 -35.4639 3.25961 77.5723 2.38425 50.018 -2.25239 -7.12757 -36.1511 1.68003 3.71942 -0.445499 -23.2447 
-37.0036 88.4259 -13.7221 14.4002 -51.3013 -90.3703 -70.1915 0 88.8779 138.925 73.3036 -54.4775 -9.29485 29.3042 4.38452 -168.16 37.0035 -179.211 -144.183 76.3553 177.053 0.871334 -11.189 -27.5959 -53.1199 62.4112 -65.9745 17.1158 10.3058 -59.3315 0.420957 0.000574826 0.35866 -1.74625 7.33545 38.1941 -78.7982 -32.3624 98.7221 34.4836 -3.71771 84.4107 0.58676 0.000331098 0.0646654 -9.10375 1.85544 93.511 -145.294 81.6401 138.092 -0.822381 1.89531 0.176977 3.10276 -9.26793 11.6286 -46.3521 2.26006 78.6659 1.8173 41.7853 -0.522926 -6.72358 -25.6613 1.53123 2.13978 -13.511 -11.1708 
-36.445 89.6931 -2.41889 12.5239 -50.5625 -92.8044 -70.1915 0 88.8779 138.078 75.0273 -53.5836 -9.6971 30.6013 3.09188 -169.547 37.4952 -179.737 -146.568 77.0322 177.102 0.918435 -11.0039 -25.5738 -54.0034 64.1578 -61.1717 17.3689 9.05257 -62.7668 0.420957 0.000574826 0.35866 -1.65894 7.98122 35.0064 -77.1483 -36.8614 101.059 37.0591 0.145676 89.9738 0.58676 0.000331098 0.0646654 -2.6574 0.192168 94.404 -35.8573 83.2551 28.949 -2.4777 0.607445 0.290029 2.91678 -8.3193 8.36445 -55.06 0.662867 79.5392 1.4762 34.5725 -0.0555194 -5.081 -9.14843 1.11272 3.21586 -23.4074 5.83821 
-35.7362 90.7071 9.32538 12.0347 -49.4756 -93.6434 -70.1915 0 88.8779 135.471 76.6755 -49.7699 -9.42369 31.5328 1.05954 -171.007 37.8367 -179.499 -146.778 77.4483 175.583 0.711075 -12.4465 -24.8337 -57.1943 65.379 -56.4392 16.6654 7.84088 -64.9667 0.420957 0.000574826 0.35866 -1.67061 8.74355 33.1316 -74.285 -40.2413 100.921 38.1103 3.65722 94.4126 0.58676 0.000331098 0.0646654 0.348967 -1.81732 95.9219 -8.44924 66.9908 -3.01319 -5.74037 1.61514 0.858839 3.74299 -10.2297 11.054 -61.2454 -1.43397 79.1008 1.46678 31.0433 6.72039 -1.76142 9.28617 -0.194185 2.27888 -18.4007 8.70495 
-35.7319 91.6399 21.3405 9.27837 -48.8953 -94.7274 -70.1915 0 88.8779 132.585 78.3883 -45.2558 -8.36048 31.9812 0.701227 -174.4 37.3292 -177.467 -149.111 77.4376 175.287 0.723012 -12.3331 -25.0804 -60.424 65.1201 -54.8726 16.8423 7.257 -66.8061 0.420957 0.000574826 0.35866 -1.54565 8.38173 32.5161 -70.8904 -40.5497 101.128 38.6355 4.66106 95.5642 0.58676 0.000331098 0.0646654 -0.423294 -1.45192 96.6279 -4.56071 49.5799 -14.0671 -6.1746 3.80233 1.20774 6.75067 -15.3636 14.4652 -66.5643 1.91841 83.2971 -0.796278 30.5885 17.7135 -1.10241 17.4322 -0.87236 2.5598 -14.1185 -21.7084 
-36.0989 90.7597 32.3733 7.052 -49.8638 -94.8789 -70.1915 0 88.8779 129.079 78.7109 -41.2279 -6.91806 31.7513 0.405778 -172.075 36.7705 178.876 -147.299 76.1916 174.587 0.780162 -11.9502 -25.099 -65.1087 64.4439 -52.2889 15.9533 5.86814 -69.7665 0.420957 0.000574826 0.35866 -1.57528 8.02841 33.806 -67.2533 -40.9033 100.473 34.0383 2.50435 93.4679 0.58676 0.000331098 0.0646654 -0.93365 0.312081 99.1337 -3.82458 43.6613 -15.0286 -9.90017 3.11073 1.70611 10.0601 -20.2423 16.0522 -67.4936 6.34529 92.5204 1.31335 41.7066 -3.69411 -4.31429 12.9264 0.197326 1.51256 -9.4894 -4.58633 
-36.6653 89.4513 43.836 6.26255 -52.6859 -93.5289 -70.1915 0 88.8779 128.281 77.226 -40.8691 -6.76946 30.1989 1.37906 -166.709 35.8717 174.678 -148.069 74.9328 178.047 0.797878 -11.7272 -26.2182 -70.5505 62.0368 -50.8493 17.0372 5.59461 -71.7793 0.420957 0.000574826 0.35866 -1.79625 7.89396 37.0237 -65.6099 -40.3346 96.6471 31.7576 -1.21912 87.8217 0.58676 0.000331098 0.0646654 -4.21448 0.654193 100.05 -4.38918 47.9563 -14.7745 -9.70111 2.78549 1.62196 10.767 -21.3476 14.3535 -66.8253 8.39595 90.1093 2.89309 57.6994 -5.95315 -1.42969 11.6321 -0.412845 2.24995 -4.273 -13.915 
-37.2575 87.8678 54.8611 7.72124 -55.3806 -92.1859 -70.1915 0 88.8779 126.014 74.9881 -42.6309 -7.6728 27.705 3.92721 -160.785 34.6075 172.059 -153.818 74.1187 -171.93 0.690288 -12.0962 -28.9812 -74.5893 57.4181 -51.5014 16.3602 4.811 -73.4766 0.420957 0.000574826 0.35866 -1.97879 7.35476 41.2715 -64.8427 -38.9211 91.1684 27.9537 -4.92947 80.6257 0.58676 0.000331098 0.0646654 -9.38391 -1.55846 98.6314 -5.8123 56.7867 -11.2503 -0.682992 -9.01493 -0.767963 1.47961 -5.7414 8.2859 -60.9257 6.74576 85.2707 9.27831 77.5518 -18.5403 -4.75207 10.3583 0.393246 1.66948 -4.94734 -9.03544 
-37.5059 86.8511 65.2496 5.88107 -57.1351 -96.7814 -70.1915 0 88.8779 120.453 74.2279 -42.5659 -5.58906 26.2842 4.74938 -162.545 32.5288 171.353 -154.063 72.0043 -171.304 0.530058 -12.5916 -32.0376 -78.1268 51.6242 -56.4301 18.4379 4.86736 -75.1215 0.420957 0.000574826 0.35866 -2.12736 6.97879 44.8284 -66.4836 -37.926 85.7169 27.162 -9.0582 72.7989 0.58676 0.000331098 0.0646654 -15.7637 -3.24334 99.3902 -7.77658 62.6509 -11.0357 1.42882 -13.9215 -1.20767 5.12486 -13.0096 15.668 -49.9711 1.71132 84.7042 159.982 81.9277 -173.74 -7.96476 7.08887 1.12015 1.16639 -5.97154 -4.08786 
